HIERARCHY
ROOT root
{
	OFFSET 0.00 0.00 0.00
	CHANNELS 6 Xposition Yposition Zposition Zrotation Xrotation Yrotation
	JOINT lowerback
	{
		OFFSET 0 0 0
		CHANNELS 6 Xposition Yposition Zposition Zrotation Xrotation Yrotation
		JOINT upperback
		{
			OFFSET -0.214371 12.3768 -1.12219
			CHANNELS 6 Xposition Yposition Zposition Zrotation Xrotation Yrotation
			JOINT thorax
			{
				OFFSET -0.00137213 12.3873 0.296195
				CHANNELS 6 Xposition Yposition Zposition Zrotation Xrotation Yrotation
				JOINT lowerneck
				{
					OFFSET 0.0883157 12.5016 0.82912
					CHANNELS 6 Xposition Yposition Zposition Zrotation Xrotation Yrotation
					JOINT upperneck
					{
						OFFSET -1 10.1794 0.943522
						CHANNELS 6 Xposition Yposition Zposition Zrotation Xrotation Yrotation
						JOINT head
						{
							OFFSET 0.667525 10.2797 -1.57149
							CHANNELS 6 Xposition Yposition Zposition Zrotation Xrotation Yrotation
							End Site
							{
								OFFSET 0 0 0
							}
						}
					}
				}
				JOINT lclavicle
				{
					OFFSET 0.0883157 12.5016 0.82912
					CHANNELS 6 Xposition Yposition Zposition Zrotation Xrotation Yrotation
					JOINT lhumerus
					{
						OFFSET 20.61 4.45006 1.43784
						CHANNELS 6 Xposition Yposition Zposition Zrotation Xrotation Yrotation
						JOINT lradius
						{
							OFFSET 0 -30.3438 0
							CHANNELS 6 Xposition Yposition Zposition Zrotation Xrotation Yrotation
							JOINT lwrist
							{
								OFFSET 0 -18.964 0
								CHANNELS 6 Xposition Yposition Zposition Zrotation Xrotation Yrotation
								JOINT lhand
								{
									OFFSET 0 -9.48199 0
									CHANNELS 6 Xposition Yposition Zposition Zrotation Xrotation Yrotation
									JOINT lfingers
									{
										OFFSET 0 -3.17138 0
										CHANNELS 6 Xposition Yposition Zposition Zrotation Xrotation Yrotation
										End Site
										{
											OFFSET 0 -2.55685 0
										}
									}
								}
								JOINT lthumb
								{
									OFFSET 0 -9.48199 0
									CHANNELS 6 Xposition Yposition Zposition Zrotation Xrotation Yrotation
									End Site
									{
										OFFSET 0 -3.67114 0
									}
								}
							}
						}
					}
				}
				JOINT rclavicle
				{
					OFFSET 0.0883157 12.5016 0.82912
					CHANNELS 6 Xposition Yposition Zposition Zrotation Xrotation Yrotation
					JOINT rhumerus
					{
						OFFSET -20.61 4.45 1.44
						CHANNELS 6 Xposition Yposition Zposition Zrotation Xrotation Yrotation
						JOINT rradius
						{
							OFFSET 0 -29.5102 0
							CHANNELS 6 Xposition Yposition Zposition Zrotation Xrotation Yrotation
							JOINT rwrist
							{
								OFFSET 0 -19.2342 0
								CHANNELS 6 Xposition Yposition Zposition Zrotation Xrotation Yrotation
								JOINT rhand
								{
									OFFSET 0 -9.61712 0
									CHANNELS 6 Xposition Yposition Zposition Zrotation Xrotation Yrotation
									JOINT rfingers
									{
										OFFSET 0 -3.29215 0
										CHANNELS 6 Xposition Yposition Zposition Zrotation Xrotation Yrotation
										End Site
										{
											OFFSET 0 -2.557 0
										}
									}
								}
								JOINT rthumb
								{
									OFFSET 0 -9.61712 0
									CHANNELS 6 Xposition Yposition Zposition Zrotation Xrotation Yrotation
									End Site
									{
										OFFSET 0 -3.671 0
									}
								}
							}
						}
					}
				}
			}
		}
	}
	JOINT rfemur
	{
		OFFSET -8.46272 -9.62775 4.76248
		CHANNELS 6 Xposition Yposition Zposition Zrotation Xrotation Yrotation
		JOINT rtibia
		{
			OFFSET 1.00552e-005 -38.0331 0
			CHANNELS 6 Xposition Yposition Zposition Zrotation Xrotation Yrotation
			JOINT rfoot
			{
				OFFSET 1.14428e-005 -43.2815 0
				CHANNELS 6 Xposition Yposition Zposition Zrotation Xrotation Yrotation
				JOINT rtoes
				{
					OFFSET 0 -14.1868 -3.08763
					CHANNELS 6 Xposition Yposition Zposition Zrotation Xrotation Yrotation
					End Site
					{
						OFFSET 0 -7.27332 0
					}
				}
			}
		}
	}
	JOINT lfemur
	{
		OFFSET 9.10607 -9.62778 4.76249
		CHANNELS 6 Xposition Yposition Zposition Zrotation Xrotation Yrotation
		JOINT ltibia
		{
			OFFSET -1.01399e-005 -38.3535 0
			CHANNELS 6 Xposition Yposition Zposition Zrotation Xrotation Yrotation
			JOINT lfoot
			{
				OFFSET -1.12937e-005 -42.7176 0
				CHANNELS 6 Xposition Yposition Zposition Zrotation Xrotation Yrotation
				JOINT ltoes
				{
					OFFSET 0 -13.9965 -2.83857
					CHANNELS 6 Xposition Yposition Zposition Zrotation Xrotation Yrotation
					End Site
					{
						OFFSET 0 -7.16348 0
					}
				}
			}
		}
	}
}
MOTION
Frames: 9
Frame Time: 0.00833333
2.75204	96.9817	30.0606	-3.19499	-4.92515	5.67969	0 0 0 2.50301	10.8393	-1.36475	-0.214371 12.3768 -1.12219 0.506047	-0.458923	-1.46576	-0.00137213 12.3873 0.296195 -0.572825	-6.6106	-0.797761	0.0883157 12.5016 0.82912 -3.51535	-6.83943	-3.3164	-1 10.1794 0.943522 8.9933	-7.17958	-4.13709	0.667525 10.2797 -1.57149 3.53581	-0.818577	-2.14252	0.0883157 12.5016 0.82912 -15	0	-0	20.61 4.45006 1.43784 21.6892	4.5951	179.351	0 -30.3438 0 180	63.0157	-180	0 -18.964 0 -7.15642e-015	2.01465e-014	-45.1567	0 -9.48199 0 1.22245	4.37968	-2.58917e-014	0 -3.17138 0 -0	7.12502	-0	0 -9.48199 0 25	15	-1.36605e-015	0.0883157 12.5016 0.82912 15	0	-0	-20.61 4.45 1.44 -34.7953	19.0842	-164.055	0 -29.5102 0 -0	69.3081	-0	0 -19.2342 0 9.79004e-016	-3.57496e-015	120.63	0 -9.61712 0 1.22	4.38	-0	0 -3.29215 0 -0	7.12502	-0	0 -9.61712 0 25	15	-7.97034e-015	-8.46272 -9.62775 4.76248 9.37193	13.548	2.65975	1.00552e-005 -38.0331 0 -0	1.65272	-0	1.14428e-005 -43.2815 0 -33.6333	-67.8285	-35.6918	0 -14.1868 -3.08763 -0	-37.6412	-0	9.10607 -9.62778 4.76249 83.3495	-36.3229	74.5198	-1.01399e-005 -38.3535 0 -180	33.9149	180	-1.12937e-005 -42.7176 0 -44.0448	-60.102	-48.13	0 -13.9965 -2.83857 -0	-40.5532	-0
2.76212	97.0873	30.7395	-3.42642	-4.91682	5.41584	0 0 0 2.80129	10.7697	-1.3062	-0.214371 12.3768 -1.12219 0.530449	-0.511737	-1.35184	-0.00137213 12.3873 0.296195 -0.735043	-6.62986	-0.752553	0.0883157 12.5016 0.82912 -3.49695	-6.84431	-3.31036	-1 10.1794 0.943522 8.94204	-6.93919	-4.13852	0.667525 10.2797 -1.57149 3.50718	-0.741679	-2.1359	0.0883157 12.5016 0.82912 -15	0	-0	20.61 4.45006 1.43784 21.6834	4.71927	179.46	0 -30.3438 0 180	62.9729	-180	0 -18.964 0 -7.15589e-015	2.0146e-014	-45.1582	0 -9.48199 0 1.22245	4.37968	-2.58917e-014	0 -3.17138 0 -0	7.12502	-0	0 -9.48199 0 25	15	-1.36605e-015	0.0883157 12.5016 0.82912 15	0	-0	-20.61 4.45 1.44 -34.7307	19.1694	-163.98	0 -29.5102 0 -0	69.3392	-0	0 -19.2342 0 9.74329e-016	-3.56705e-015	120.555	0 -9.61712 0 1.22	4.38	-0	0 -3.29215 0 -0	7.12502	-0	0 -9.61712 0 25	15	-7.97034e-015	-8.46272 -9.62775 4.76248 9.62353	14.5158	2.52385	1.00552e-005 -38.0331 0 -0	0.581477	-0	1.14428e-005 -43.2815 0 -33.5407	-67.7326	-35.6152	0 -14.1868 -3.08763 -0	-38.1471	-0	9.10607 -9.62778 4.76249 87.3508	-33.0047	77.4066	-1.01399e-005 -38.3535 0 -180	31.7347	180	-1.12937e-005 -42.7176 0 -49.2356	-59.5292	-53.3869	0 -13.9965 -2.83857 -0	-40.9216	-0
2.77189	97.1719	31.4254	-3.72361	-4.89118	5.15354	0 0 0 3.17528	10.6674	-1.257	-0.214371 12.3768 -1.12219 0.573429	-0.575729	-1.24209	-0.00137213 12.3873 0.296195 -0.919726	-6.64406	-0.711847	0.0883157 12.5016 0.82912 -3.47566	-6.8448	-3.2984	-1 10.1794 0.943522 8.88666	-6.69202	-4.13237	0.667525 10.2797 -1.57149 3.47654	-0.663879	-2.12544	0.0883157 12.5016 0.82912 -15	0	-0	20.61 4.45006 1.43784 21.6595	4.82967	179.581	0 -30.3438 0 180	62.9157	-180	0 -18.964 0 -7.15371e-015	2.01438e-014	-45.1644	0 -9.48199 0 1.22245	4.37968	-2.58917e-014	0 -3.17138 0 -0	7.12502	-0	0 -9.48199 0 25	15	-1.36605e-015	0.0883157 12.5016 0.82912 15	0	-0	-20.61 4.45 1.44 -34.6635	19.266	-163.905	0 -29.5102 0 -0	69.3836	-0	0 -19.2342 0 9.69479e-016	-3.55882e-015	120.477	0 -9.61712 0 1.22	4.38	-0	0 -3.29215 0 -0	7.12502	-0	0 -9.61712 0 25	15	-7.97034e-015	-8.46272 -9.62775 4.76248 9.96452	15.285	2.35255	1.00552e-005 -38.0331 0 -0	-0.179277	-0	1.14428e-005 -43.2815 0 -33.6725	-67.7378	-35.7497	0 -14.1868 -3.08763 -0	-38.6286	-0	9.10607 -9.62778 4.76249 90.4581	-30.432	79.5597	-1.01399e-005 -38.3535 0 -180	30.0915	180	-1.12937e-005 -42.7176 0 -53.2154	-58.9414	-57.3611	0 -13.9965 -2.83857 -0	-41.1594	-0
2.77902	97.2352	32.1101	-4.07186	-4.85405	4.91235	0 0 0 3.60576	10.5448	-1.2212	-0.214371 12.3768 -1.12219 0.634074	-0.647362	-1.14354	-0.00137213 12.3873 0.296195 -1.11553	-6.65635	-0.678539	0.0883157 12.5016 0.82912 -3.4516	-6.84445	-3.28117	-1 10.1794 0.943522 8.82792	-6.44754	-4.11925	0.667525 10.2797 -1.57149 3.44446	-0.587972	-2.1117	0.0883157 12.5016 0.82912 -15	0	-0	20.61 4.45006 1.43784 21.6166	4.91835	179.706	0 -30.3438 0 180	62.8481	-180	0 -18.964 0 -7.15055e-015	2.01406e-014	-45.1734	0 -9.48199 0 1.22245	4.37968	-2.58917e-014	0 -3.17138 0 -0	7.12502	-0	0 -9.48199 0 25	15	-1.36605e-015	0.0883157 12.5016 0.82912 15	0	-0	-20.61 4.45 1.44 -34.5971	19.3673	-163.833	0 -29.5102 0 -0	69.4349	-0	0 -19.2342 0 9.6464e-016	-3.55059e-015	120.399	0 -9.61712 0 1.22	4.38	-0	0 -3.29215 0 -0	7.12502	-0	0 -9.61712 0 25	15	-7.97034e-015	-8.46272 -9.62775 4.76248 10.3869	15.8715	2.13867	1.00552e-005 -38.0331 0 -0	-0.652909	-0	1.14428e-005 -43.2815 0 -34.0604	-67.8244	-36.1312	0 -14.1868 -3.08763 -0	-39.0696	-0	9.10607 -9.62778 4.76249 92.7129	-28.896	81.0858	-1.01399e-005 -38.3535 0 -180	29.0297	180	-1.12937e-005 -42.7176 0 -55.9182	-58.4984	-60.0206	0 -13.9965 -2.83857 -0	-41.3132	-0
2.78231	97.2769	32.7856	-4.45404	-4.81102	4.709	0 0 0 4.07045	10.4142	-1.20168	-0.214371 12.3768 -1.12219 0.710297	-0.723007	-1.06214	-0.00137213 12.3873 0.296195 -1.31085	-6.66955	-0.65487	0.0883157 12.5016 0.82912 -3.425	-6.84355	-3.25964	-1 10.1794 0.943522 8.76701	-6.21515	-4.10011	0.667525 10.2797 -1.57149 3.41166	-0.516791	-2.09544	0.0883157 12.5016 0.82912 -15	0	-0	20.61 4.45006 1.43784 21.5555	4.97848	179.829	0 -30.3438 0 180	62.7742	-180	0 -18.964 0 -7.14686e-015	2.01369e-014	-45.1839	0 -9.48199 0 1.22245	4.37968	-2.58917e-014	0 -3.17138 0 -0	7.12502	-0	0 -9.48199 0 25	15	-1.36605e-015	0.0883157 12.5016 0.82912 15	0	-0	-20.61 4.45 1.44 -34.5347	19.4671	-163.765	0 -29.5102 0 -0	69.4873	-0	0 -19.2342 0 9.59873e-016	-3.54245e-015	120.322	0 -9.61712 0 1.22	4.38	-0	0 -3.29215 0 -0	7.12502	-0	0 -9.61712 0 25	15	-7.97034e-015	-8.46272 -9.62775 4.76248 10.8781	16.2994	1.87631	1.00552e-005 -38.0331 0 -0	-0.876747	-0	1.14428e-005 -43.2815 0 -34.7189	-67.9672	-36.7787	0 -14.1868 -3.08763 -0	-39.456	-0	9.10607 -9.62778 4.76249 94.1527	-28.6015	82.0896	-1.01399e-005 -38.3535 0 -180	28.582	180	-1.12937e-005 -42.7176 0 -57.356	-58.3084	-61.406	0 -13.9965 -2.83857 -0	-41.4287	-0
2.78226	97.2944	33.4499	-4.85202	-4.76698	4.55581	0 0 0 4.54602	10.2865	-1.19982	-0.214371 12.3768 -1.12219 0.799013	-0.799126	-1.00209	-0.00137213 12.3873 0.296195 -1.49494	-6.68582	-0.642168	0.0883157 12.5016 0.82912 -3.39635	-6.83984	-3.23499	-1 10.1794 0.943522 8.70548	-6.00365	-4.07625	0.667525 10.2797 -1.57149 3.37905	-0.453047	-2.07755	0.0883157 12.5016 0.82912 -15	0	-0	20.61 4.45006 1.43784 21.4787	5.00473	179.943	0 -30.3438 0 180	62.6979	-180	0 -18.964 0 -7.14281e-015	2.01328e-014	-45.1954	0 -9.48199 0 1.22245	4.37968	-2.58917e-014	0 -3.17138 0 -0	7.12502	-0	0 -9.48199 0 25	15	-1.36605e-015	0.0883157 12.5016 0.82912 15	0	-0	-20.61 4.45 1.44 -34.4786	19.5595	-163.704	0 -29.5102 0 -0	69.5358	-0	0 -19.2342 0 9.55303e-016	-3.53462e-015	120.248	0 -9.61712 0 1.22	4.38	-0	0 -3.29215 0 -0	7.12502	-0	0 -9.61712 0 25	15	-7.97034e-015	-8.46272 -9.62775 4.76248 11.422	16.5989	1.56178	1.00552e-005 -38.0331 0 -0	-0.897855	-0	1.14428e-005 -43.2815 0 -35.6407	-68.1384	-37.6885	0 -14.1868 -3.08763 -0	-39.7767	-0	9.10607 -9.62778 4.76249 94.8143	-29.6501	82.6753	-1.01399e-005 -38.3535 0 -180	28.7662	180	-1.12937e-005 -42.7176 0 -57.5798	-58.4163	-61.5852	0 -13.9965 -2.83857 -0	-41.546	-0
2.78056	97.2876	34.104	-5.24807	-4.72571	4.45958	0 0 0 5.01015	10.1705	-1.21534	-0.214371 12.3768 -1.12219 0.896391	-0.872426	-0.965355	-0.00137213 12.3873 0.296195 -1.65887	-6.70634	-0.640689	0.0883157 12.5016 0.82912 -3.3666	-6.83363	-3.20859	-1 10.1794 0.943522 8.64509	-5.82063	-4.04919	0.667525 10.2797 -1.57149 3.34764	-0.399139	-2.05901	0.0883157 12.5016 0.82912 -15	0	-0	20.61 4.45006 1.43784 21.3901	4.99335	-179.957	0 -30.3438 0 180	62.6226	-180	0 -18.964 0 -7.13835e-015	2.01283e-014	-45.2081	0 -9.48199 0 1.22245	4.37968	-2.58917e-014	0 -3.17138 0 -0	7.12502	-0	0 -9.48199 0 25	15	-1.36605e-015	0.0883157 12.5016 0.82912 15	0	-0	-20.61 4.45 1.44 -34.4301	19.6393	-163.649	0 -29.5102 0 -0	69.577	-0	0 -19.2342 0 9.51113e-016	-3.52743e-015	120.18	0 -9.61712 0 1.22	4.38	-0	0 -3.29215 0 -0	7.12502	-0	0 -9.61712 0 25	15	-7.97034e-015	-8.46272 -9.62775 4.76248 11.9995	16.8032	1.19443	1.00552e-005 -38.0331 0 -0	-0.768411	-0	1.14428e-005 -43.2815 0 -36.7928	-68.3103	-38.8303	0 -14.1868 -3.08763 -0	-40.0248	-0	9.10607 -9.62778 4.76249 94.7373	-32.0313	82.9387	-1.01399e-005 -38.3535 0 -180	29.5847	180	-1.12937e-005 -42.7176 0 -56.6633	-58.8054	-60.6344	0 -13.9965 -2.83857 -0	-41.6963	-0
2.77399	97.2532	34.7458	-5.62602	-4.68975	4.42116	0 0 0 5.44327	10.0724	-1.2463	-0.214371 12.3768 -1.12219 0.998143	-0.939985	-0.951534	-0.00137213 12.3873 0.296195 -1.79626	-6.7312	-0.649579	0.0883157 12.5016 0.82912 -3.33697	-6.82364	-3.1819	-1 10.1794 0.943522 8.58767	-5.67188	-4.02057	0.667525 10.2797 -1.57149 3.31845	-0.356946	-2.04082	0.0883157 12.5016 0.82912 -15	0	-0	20.61 4.45006 1.43784 21.2948	4.94225	-179.879	0 -30.3438 0 180	62.5513	-180	0 -18.964 0 -7.13305e-015	2.0123e-014	-45.2232	0 -9.48199 0 1.22245	4.37968	-2.58917e-014	0 -3.17138 0 -0	7.12502	-0	0 -9.48199 0 25	15	-1.36605e-015	0.0883157 12.5016 0.82912 15	0	-0	-20.61 4.45 1.44 -34.3896	19.7021	-163.597	0 -29.5102 0 -0	69.6087	-0	0 -19.2342 0 9.47361e-016	-3.52097e-015	120.119	0 -9.61712 0 1.22	4.38	-0	0 -3.29215 0 -0	7.12502	-0	0 -9.61712 0 25	15	-7.97034e-015	-8.46272 -9.62775 4.76248 12.5905	16.9462	0.77717	1.00552e-005 -38.0331 0 -0	-0.541379	-0	1.14428e-005 -43.2815 0 -38.1149	-68.4587	-40.1455	0 -14.1868 -3.08763 -0	-40.1986	-0	9.10607 -9.62778 4.76249 93.9653	-35.6228	82.9443	-1.01399e-005 -38.3535 0 -180	31.0235	180	-1.12937e-005 -42.7176 0 -54.705	-59.4082	-58.643	0 -13.9965 -2.83857 -0	-41.9	-0
2.76237	97.1911	35.3832	-5.97236	-4.66039	4.43551	0 0 0 5.83012	9.99567	-1.28922	-0.214371 12.3768 -1.12219 1.09985	-0.999344	-0.957868	-0.00137213 12.3873 0.296195 -1.90381	-6.75937	-0.666947	0.0883157 12.5016 0.82912 -3.3089	-6.80835	-3.15633	-1 10.1794 0.943522 8.53493	-5.56092	-3.99207	0.667525 10.2797 -1.57149 3.29244	-0.327658	-2.0239	0.0883157 12.5016 0.82912 -15	0	-0	20.61 4.45006 1.43784 21.1982	4.85116	-179.825	0 -30.3438 0 180	62.4866	-180	0 -18.964 0 -7.12624e-015	2.01161e-014	-45.2426	0 -9.48199 0 1.22245	4.37968	-2.58917e-014	0 -3.17138 0 -0	7.12502	-0	0 -9.48199 0 25	15	-1.36605e-015	0.0883157 12.5016 0.82912 15	0	-0	-20.61 4.45 1.44 -34.3567	19.7443	-163.548	0 -29.5102 0 -0	69.63	-0	0 -19.2342 0 9.43983e-016	-3.51514e-015	120.064	0 -9.61712 0 1.22	4.38	-0	0 -3.29215 0 -0	7.12502	-0	0 -9.61712 0 25	15	-7.97034e-015	-8.46272 -9.62775 4.76248 13.1746	17.06	0.316648	1.00552e-005 -38.0331 0 -0	-0.266939	-0	1.14428e-005 -43.2815 0 -39.5228	-68.5657	-41.5509	0 -14.1868 -3.08763 -0	-40.3025	-0	9.10607 -9.62778 4.76249 92.5347	-40.2047	82.6963	-1.01399e-005 -38.3535 0 -180	33.054	180	-1.12937e-005 -42.7176 0 -51.8415	-60.1261	-55.732	0 -13.9965 -2.83857 -0	-42.1667	-0
